<?xml version="1.0"?>
<svg xmlns="http://www.w3.org/2000/svg" xmlns:xlink="http://www.w3.org/1999/xlink" version="1.1" id="Capa_1" x="0px" y="0px" viewBox="0 0 512 512" style="enable-background:new 0 0 512 512;" xml:space="preserve" width="512px" height="512px"><g><g>
	<g>
		<path d="M427.636,151.273H84.364c-9.641,0-17.455,7.814-17.455,17.455v290.909c0,28.876,23.494,52.364,52.364,52.364h273.455    c28.876,0,52.364-23.488,52.364-52.364V168.727C445.091,159.087,437.277,151.273,427.636,151.273z M410.182,459.636    c0,9.623-7.831,17.455-17.455,17.455H119.273c-9.623,0-17.455-7.831-17.455-17.455V186.182h308.364V459.636z" data-original="#000000" class="active-path" data-old_color="#000000" fill="#000000"/>
	</g>
</g><g>
	<g>
		<path d="M258.909,0c-57.745,0-104.727,46.982-104.727,104.727v145.455c0,9.641,7.814,17.455,17.455,17.455    c9.641,0,17.455-7.814,17.455-17.455V104.727c0-38.499,31.319-69.818,69.818-69.818c38.499,0,69.818,31.319,69.818,69.818v145.455    c0,9.641,7.814,17.455,17.455,17.455s17.455-7.814,17.455-17.455V104.727C363.636,46.982,316.655,0,258.909,0z" data-original="#000000" class="active-path" data-old_color="#000000" fill="#000000"/>
	</g>
</g></g> </svg>
